<svg width="69" height="68" viewBox="0 0 69 68" fill="none" xmlns="http://www.w3.org/2000/svg">
<g id="&#208;&#187;&#208;&#190;&#208;&#179;&#208;&#190;">
<path id="Vector" d="M0 34V68H34.4162C65.4662 68 68.8324 67.9721 68.9162 67.7766C69.0279 67.4973 69.0279 0.516632 68.9162 0.223412C68.8324 0.0139618 65.7595 0 34.4162 0H0V34ZM13.1296 16.0575C13.1296 16.1273 13.0318 16.1971 12.9061 16.1971C12.7804 16.1971 12.4731 16.4066 12.2077 16.6719L11.7328 17.1466V25.3569C11.7328 33.3298 11.7468 33.5951 12.0121 34.0419C12.1937 34.3351 12.4451 34.5306 12.7105 34.5864C13.7581 34.7819 13.1156 34.9076 10.9646 34.9076C9.45607 34.9076 8.67389 34.8657 8.72976 34.768C8.77166 34.6842 8.9253 34.6283 9.06498 34.6283C9.20466 34.6283 9.48401 34.4608 9.69352 34.2653L10.0567 33.8883V25.4825C10.0567 17.2723 10.0567 17.0628 9.77733 16.7138C9.62368 16.5183 9.30243 16.3228 9.07895 16.2669C8.10121 16.0575 8.78563 15.9179 10.8947 15.9179C12.2915 15.9179 13.1296 15.9737 13.1296 16.0575ZM24.0243 16.0575C24.0243 16.1273 23.9405 16.1971 23.8427 16.1971C23.4796 16.1971 23.1443 16.5741 23.1583 16.9791C23.1723 17.3142 24.164 19.8136 25.2674 22.271C25.4071 22.5782 26.1055 24.2259 26.8318 25.9294L28.1447 29.0431H29.7231H31.3014L31.5528 28.4427C31.7065 28.1216 32.7121 25.7478 33.8016 23.1786C34.8911 20.6094 35.9107 18.2218 36.0504 17.8867C36.1901 17.5515 36.3158 17.1466 36.3158 16.993C36.3158 16.6579 35.9387 16.1971 35.6593 16.1971C35.5615 16.1971 35.4777 16.1273 35.4777 16.0575C35.4777 15.9737 36.0783 15.9179 37.0142 15.9179C37.8662 15.9179 38.5506 15.9737 38.5506 16.0296C38.5506 16.0994 38.3132 16.2251 38.0198 16.3088C37.0002 16.616 36.7767 17.0209 34.1648 23.1368C32.8099 26.2924 31.7065 28.9175 31.7065 28.9454C31.7065 28.9733 32.0976 29.085 32.5725 29.1828C36.218 29.8949 38.2713 33.7766 36.7208 37.0579C36.2599 38.0493 35.1704 39.1524 34.1927 39.6411C33.7178 39.8784 33.2569 40.0739 33.1451 40.0739C33.0474 40.0739 32.9636 40.1298 32.9636 40.1996C32.9636 40.2834 33.7597 41.3864 34.7374 42.671C36.5253 45.0308 37.2097 45.6731 38.1455 45.8686C38.9976 46.0641 38.4947 46.2177 37.0281 46.2177C35.5057 46.2177 35.5057 46.2177 35.2403 45.8267C35.0447 45.5055 32.2791 41.8612 31.2735 40.5906C31.05 40.3113 30.8964 40.2973 27.6 40.2694L24.164 40.2554V42.7269C24.164 45.0029 24.1779 45.2123 24.4433 45.4916C24.597 45.6591 24.8903 45.8407 25.0719 45.8825C25.854 46.078 25.1557 46.2177 23.3957 46.2177C21.6358 46.2177 20.8955 46.0641 21.7196 45.8546C21.9152 45.8127 22.1945 45.6033 22.3482 45.4218C22.6136 45.0727 22.6275 44.8353 22.6275 37.6025V30.1322L22.2225 29.7273C21.999 29.5039 21.7057 29.3224 21.5939 29.3224C21.4682 29.3224 21.3704 29.2526 21.3704 29.1828C21.3704 29.099 22.2783 29.0431 23.8148 29.0431C25.1557 29.0431 26.2591 28.9873 26.2591 28.9175C26.2591 28.8476 25.6585 27.3955 24.9182 25.678C24.1919 23.9606 23.1164 21.4193 22.5298 20.037C21.6498 17.9425 21.3704 17.4259 20.8676 16.9232C20.5324 16.6021 20.0715 16.2949 19.834 16.253C18.8423 16.0435 19.5686 15.9179 21.7196 15.9179C23.1583 15.9179 24.0243 15.9737 24.0243 16.0575ZM54.3759 29.2665C56.0381 29.6296 57.3231 30.3556 58.5941 31.6263C59.949 32.9667 60.6194 34.2374 60.9826 36.0805C61.8206 40.3532 59.1528 44.5979 54.8229 45.8825C53.5239 46.2595 51.4846 46.2037 50.0599 45.7429C47.5178 44.9191 45.4646 42.9503 44.5287 40.409C44.2634 39.7109 44.2215 39.292 44.2075 37.7002C44.2075 36.0805 44.2494 35.6895 44.5427 34.8657C45.9395 30.8025 50.2555 28.3589 54.3759 29.2665Z" fill="#643843"/>
<path id="Vector_2" d="M23.9785 34.7339V40.1152L28.1288 40.0733C31.9674 40.0314 32.3073 40.0034 32.9164 39.7378C35.8343 38.4379 36.67 33.7695 34.5028 30.974C33.8796 30.1773 32.7889 29.5344 31.9815 29.4645L31.415 29.4225L30.211 32.1761C29.5594 33.6996 28.9503 34.9436 28.8653 34.9436C28.7945 34.9436 28.2562 33.8254 27.6755 32.4556C27.0947 31.0998 26.5423 29.8419 26.429 29.6601C26.259 29.3806 26.1315 29.3526 25.1117 29.3526H23.9785V34.7339Z" fill="#643843"/>
<path id="Vector_3" d="M28.3828 29.4566C28.3828 29.6651 29.7807 32.7769 29.87 32.7769C29.9443 32.7769 30.8366 30.752 31.3125 29.5311C31.372 29.3971 31.03 29.3524 29.8848 29.3524C29.052 29.3524 28.3828 29.3971 28.3828 29.4566Z" fill="#643843"/>
<path id="Vector_4" d="M51.1311 29.5553C47.9416 30.4115 45.5107 33.9208 45.5107 37.6828C45.5107 42.5958 49.4169 46.5964 53.562 45.9086C57.1169 45.319 59.7022 41.8518 59.7022 37.6828C59.7022 32.4048 55.4729 28.3902 51.1311 29.5553Z" fill="#643843"/>
</g>
</svg>
